<svg width="97" height="96" xmlns="http://www.w3.org/2000/svg" xmlns:xlink="http://www.w3.org/1999/xlink" xml:space="preserve" overflow="hidden"><defs><clipPath id="clip0"><rect x="129" y="312" width="97" height="96"/></clipPath><clipPath id="clip1"><rect x="130" y="312" width="96" height="96"/></clipPath><clipPath id="clip2"><rect x="130" y="312" width="96" height="96"/></clipPath><clipPath id="clip3"><rect x="130" y="312" width="96" height="96"/></clipPath></defs><g clip-path="url(#clip0)" transform="translate(-129 -312)"><g clip-path="url(#clip1)"><g clip-path="url(#clip2)"><g clip-path="url(#clip3)"><path d="M157.891 337.87C156.602 338.16 155.455 338.892 154.649 339.939L146.1 351.067 139.09 351.067C138.538 351.067 138.09 351.515 138.09 352.067 138.09 352.619 138.538 353.067 139.09 353.067L146.59 353.067C146.901 353.067 147.194 352.923 147.383 352.677L156.233 341.158C156.754 340.482 157.495 340.009 158.327 339.821L185.166 333.8C187.307 333.325 189.427 334.676 189.901 336.816 189.929 336.941 189.951 337.067 189.966 337.194 190.139 339.287 188.718 341.179 186.659 341.594L168.752 346.094C168.216 346.226 167.888 346.768 168.02 347.304 168.131 347.754 168.536 348.069 169 348.065L207.855 348.065C209.94 348.03 211.717 349.569 211.981 351.637 212.197 353.82 210.602 355.765 208.419 355.981 208.291 355.993 208.161 356 208.032 356 207.926 356.004 207.822 356.025 207.723 356.063L179 356.063C178.448 356.063 178 356.511 178 357.063 178 357.615 178.448 358.063 179 358.063L213.855 358.063C215.94 358.028 217.718 359.567 217.981 361.636 218.196 363.82 216.6 365.765 214.416 365.981 214.288 365.993 214.16 366 214.031 366L179 366C178.448 366 178 366.448 178 367 178 367.552 178.448 368 179 368L207.855 368C209.939 367.965 211.717 369.503 211.981 371.571 212.197 373.755 210.603 375.7 208.419 375.917 208.291 375.929 208.161 375.936 208.032 375.936L179 375.936C178.448 375.936 178 376.384 178 376.936 178 377.488 178.448 377.936 179 377.936L197.556 377.936C197.698 378.017 197.858 378.061 198.021 378.065 200.213 378.065 201.99 379.842 201.99 382.034 201.99 382.165 201.984 382.296 201.971 382.426 201.695 384.503 199.904 386.042 197.809 386L163.339 386C159.465 386.001 155.684 384.819 152.5 382.612L150.2 381.021C148.363 379.747 146.182 379.063 143.947 379.059L139.086 379.049C138.534 379.049 138.086 379.497 138.086 380.049 138.086 380.601 138.534 381.049 139.086 381.049L143.954 381.059C145.779 381.062 147.559 381.62 149.059 382.659L151.368 384.259C154.882 386.695 159.055 388 163.331 388L197.809 388C200.932 388.035 203.582 385.715 203.961 382.615 204.12 380.938 203.568 379.271 202.439 378.021 202.412 377.991 202.381 377.965 202.354 377.936L207.783 377.936C211.108 377.943 213.848 375.33 214 372.009 214.01 370.53 213.467 369.1 212.478 368L213.823 368C216.873 368.044 219.487 365.832 219.949 362.817 220.379 359.545 218.076 356.544 214.804 356.114 214.548 356.08 214.29 356.063 214.031 356.063L212.421 356.063C213.433 354.969 213.997 353.534 214 352.043 213.88 348.698 211.126 346.052 207.779 346.065L177.166 346.065C177.161 346.063 177.158 346.058 177.16 346.052 177.161 346.049 177.163 346.047 177.166 346.046L187.129 343.546C190.185 342.898 192.265 340.055 191.958 336.946 191.559 333.675 188.585 331.347 185.314 331.746 185.118 331.769 184.924 331.803 184.732 331.846Z" fill="#000000" fill-rule="nonzero" fill-opacity="1"/></g></g></g></g></svg>