<svg width="97" height="98" xmlns="http://www.w3.org/2000/svg" xmlns:xlink="http://www.w3.org/1999/xlink" xml:space="preserve" overflow="hidden"><defs><clipPath id="clip0"><rect x="368" y="94" width="97" height="98"/></clipPath><clipPath id="clip1"><rect x="369" y="95" width="96" height="96"/></clipPath><clipPath id="clip2"><rect x="369" y="95" width="96" height="96"/></clipPath><clipPath id="clip3"><rect x="369" y="95" width="96" height="96"/></clipPath></defs><g clip-path="url(#clip0)" transform="translate(-368 -94)"><g clip-path="url(#clip1)"><g clip-path="url(#clip2)"><g clip-path="url(#clip3)"><path d="M387 103 387 183 447 183 447 124.586 425.414 103ZM426.017 106.431 443.569 123.983C443.573 123.987 443.573 123.993 443.569 123.997 443.567 123.999 443.565 124 443.562 124L426 124 426 106.438C426 106.433 426.005 106.428 426.01 106.428 426.013 106.428 426.015 106.429 426.017 106.431ZM389 181 389 105 424 105 424 126 445 126 445 181Z" fill="#000000" fill-rule="nonzero" fill-opacity="1"/></g></g></g></g></svg>