<svg width="96" height="98" xmlns="http://www.w3.org/2000/svg" xmlns:xlink="http://www.w3.org/1999/xlink" xml:space="preserve" overflow="hidden"><defs><clipPath id="clip0"><rect x="544" y="94" width="96" height="98"/></clipPath><clipPath id="clip1"><rect x="544" y="95" width="96" height="96"/></clipPath><clipPath id="clip2"><rect x="544" y="95" width="96" height="96"/></clipPath><clipPath id="clip3"><rect x="544" y="95" width="96" height="96"/></clipPath></defs><g clip-path="url(#clip0)" transform="translate(-544 -94)"><g clip-path="url(#clip1)"><g clip-path="url(#clip2)"><g clip-path="url(#clip3)"><path d="M626.646 161.967C625.781 156.967 619.897 153.967 609.157 153.052 608.61 153.005 607.72 152.981 606.514 152.981 605.898 152.981 605.187 152.989 604.431 153.001 605.851 152.783 606.97 152.596 607.604 152.481 611.509 151.771 616.948 148.816 619.29 145.099 620.364 143.547 620.722 141.609 620.272 139.776 618.672 133.918 609.854 133.043 604.738 133.043L603.5 133.043C606.352 132.052 609.155 130.226 609.652 126.412 609.999 123.747 609.039 119.676 602.498 115.412 597.608 112.224 588.898 111.356 584.974 111.342L584.932 111.342C579.513 111.342 574.11 115.372 572.622 118.261 570.399 122.578 572.458 127.873 575.641 130.303 577.085 131.357 578.71 132.136 580.435 132.603 571.772 132.663 567.768 135.327 565.935 137.569 564.47 139.29 563.873 141.588 564.315 143.805 565.979 151.896 572.951 153.382 578.637 154.52 577.211 154.661 575.8 154.812 574.425 154.974 566.362 155.923 561.091 158.009 558.758 161.174 557.654 162.625 557.218 164.476 557.558 166.267 558.639 172.089 564.677 175.04 575.507 175.04 576.486 175.04 577.353 175.019 578.044 175.001 578.473 174.99 578.83 174.981 579.098 174.981 579.193 174.981 579.27 174.981 579.327 174.981 580.527 175.081 587.276 175.336 594.318 175.336 602.352 175.336 608.087 175.024 611.363 174.409 615.542 173.634 628.252 171.249 626.646 161.967ZM574.4 119.179C575.473 117.094 580.053 113.344 584.933 113.344L584.967 113.344C589.239 113.359 597.243 114.376 601.406 117.089 605.569 119.802 608.087 122.938 607.669 126.154 607.336 128.707 605.623 130.693 600.446 131.811 598.058 132.269 595.632 132.5 593.2 132.5 590.551 132.5 587.909 132.227 585.317 131.683 581.417 130.968 578.83 130.232 576.847 128.718 574.217 126.705 572.759 122.356 574.4 119.179ZM566.273 143.405C565.448 139.389 569.296 134.605 580.719 134.605 581.186 134.605 581.666 134.613 582.161 134.629 594.704 135.047 601.367 135.047 604.738 135.047 608.919 135.047 617.089 135.709 618.343 140.307 619.597 144.905 611.843 149.681 607.243 150.517 603.535 151.191 591.674 152.952 583.931 152.952 582.357 152.983 580.784 152.868 579.231 152.607 572.963 151.349 567.621 149.958 566.273 143.405ZM611 172.452C607.311 173.144 600.61 173.344 594.323 173.344 587.157 173.344 580.523 173.084 579.501 172.996 579.401 172.988 579.27 172.985 579.101 172.985 578.401 172.985 577.107 173.044 575.51 173.044 569.963 173.044 560.719 172.327 559.527 165.907 558.715 161.528 564.045 158.212 574.659 156.963 586.378 155.584 600.494 154.981 606.515 154.981 607.652 154.981 608.499 155.002 608.988 155.044 612.067 155.307 623.636 156.294 624.676 162.308 625.716 168.322 618.889 170.971 611 172.452Z" fill="#000000" fill-rule="nonzero" fill-opacity="1"/></g></g></g></g></svg>