<svg width="97" height="96" xmlns="http://www.w3.org/2000/svg" xmlns:xlink="http://www.w3.org/1999/xlink" xml:space="preserve" overflow="hidden"><defs><clipPath id="clip0"><rect x="1053" y="312" width="97" height="96"/></clipPath><clipPath id="clip1"><rect x="1054" y="312" width="96" height="96"/></clipPath><clipPath id="clip2"><rect x="1054" y="312" width="96" height="96"/></clipPath><clipPath id="clip3"><rect x="1054" y="312" width="96" height="96"/></clipPath></defs><g clip-path="url(#clip0)" transform="translate(-1053 -312)"><g clip-path="url(#clip1)"><g clip-path="url(#clip2)"><g clip-path="url(#clip3)"><path d="M1089.58 340.437C1088.42 339.197 1086.8 338.496 1085.1 338.5L1077.15 338.5C1073.75 338.5 1071 341.252 1071 344.648 1071 344.649 1071 344.649 1071 344.65L1071 344.85C1071 346.736 1071.87 348.517 1073.35 349.679 1071.3 350.729 1070 352.841 1070 355.15L1070 355.35C1070 357.92 1071.61 360.217 1074.02 361.11 1072.73 362.271 1072 363.92 1072 365.65L1072 365.85C1072.01 368.715 1073.98 371.197 1076.78 371.84 1075.64 372.988 1075 374.539 1075 376.156L1075 376.356C1075 379.753 1077.75 382.506 1081.15 382.506L1087.09 382.533C1087.19 382.533 1087.4 382.533 1087.4 382.533 1096.2 382 1108.43 380.43 1113.83 373L1132.83 373 1132.83 371 1112.77 371 1112.47 371.444C1108.55 377.304 1099.7 379.339 1091.92 380.16 1092.78 379.079 1093.25 377.74 1093.25 376.36L1093.25 376.16C1093.25 374.54 1092.61 372.986 1091.47 371.837 1093.04 371.479 1094.41 370.513 1095.28 369.149 1098.29 368.647 1100.5 366.041 1100.51 362.985L1100.51 356.99C1100.51 356.984 1100.51 356.98 1100.52 356.981 1100.52 356.981 1100.52 356.982 1100.52 356.984 1102.4 359.537 1105.38 361.034 1108.55 361.011L1108.55 359.011C1104.13 359.019 1100.54 355.444 1100.54 351.026L1098.51 351.026 1098.51 362.83C1098.54 365.107 1096.82 367.025 1094.55 367.23 1092.2 367.389 1090.17 365.615 1090.01 363.268 1090 363.172 1090 363.077 1090 362.981L1090 345.8C1090 340.981 1094.51 336.754 1099.66 336.754 1104.68 336.754 1109.96 339.726 1113.45 344.505 1113.67 344.801 1113.92 345.08 1114.19 345.342 1114.46 345.606 1114.71 345.898 1114.93 346.212L1115.21 346.712 1133 346.712 1133 344.712 1116.31 344.712C1116.1 344.441 1115.85 344.187 1115.62 343.952 1115.43 343.755 1115.24 343.546 1115.06 343.327 1111.2 338.037 1105.3 334.751 1099.67 334.751 1095.55 334.8 1091.75 336.944 1089.58 340.437ZM1076.15 359.5C1073.86 359.498 1072 357.641 1072 355.35L1072 355.15C1072 352.859 1073.86 351.002 1076.15 351L1088 351 1088 359.5 1076.15 359.5ZM1087.1 372.006C1089.39 372.009 1091.25 373.865 1091.25 376.156L1091.25 376.356C1091.25 378.647 1089.39 380.503 1087.1 380.506L1081.15 380.506C1078.86 380.503 1077 378.647 1077 376.356L1077 376.156C1077 373.865 1078.86 372.009 1081.15 372.006ZM1092.75 369.045C1092 369.663 1091.07 370 1090.1 370L1078.15 370C1075.86 369.998 1074 368.141 1074 365.85L1074 365.65C1074 363.359 1075.86 361.503 1078.15 361.5L1088 361.5 1088 362.981C1088.01 365.851 1089.96 368.35 1092.75 369.045ZM1088 347.788C1087.23 348.558 1086.19 348.994 1085.1 349L1077.15 349C1074.86 348.997 1073 347.141 1073 344.85L1073 344.65C1073 342.359 1074.86 340.503 1077.15 340.5L1085.1 340.5C1086.53 340.498 1087.85 341.233 1088.6 342.442 1088.21 343.518 1088.01 344.654 1088 345.8Z" fill="#000000" fill-rule="nonzero" fill-opacity="1"/></g></g></g></g></svg>