<svg width="97" height="98" xmlns="http://www.w3.org/2000/svg" xmlns:xlink="http://www.w3.org/1999/xlink" xml:space="preserve" overflow="hidden"><defs><clipPath id="clip0"><rect x="193" y="94" width="97" height="98"/></clipPath><clipPath id="clip1"><rect x="194" y="95" width="96" height="96"/></clipPath><clipPath id="clip2"><rect x="194" y="95" width="96" height="96"/></clipPath><clipPath id="clip3"><rect x="194" y="95" width="96" height="96"/></clipPath></defs><g clip-path="url(#clip0)" transform="translate(-193 -94)"><g clip-path="url(#clip1)"><g clip-path="url(#clip2)"><g clip-path="url(#clip3)"><path d="M244.067 142.183C244.067 141.079 243.172 140.185 242.068 140.185 240.964 140.185 240.069 141.08 240.069 142.184 240.07 143.288 240.965 144.183 242.069 144.183 242.599 144.182 243.107 143.972 243.482 143.597 243.858 143.223 244.068 142.714 244.067 142.183Z" fill="#000000" fill-rule="nonzero" fill-opacity="1"/><path d="M269.444 123.188C266.845 123.183 264.307 123.974 262.173 125.457L255.944 128.925 259.411 122.697C259.947 121.88 260.423 121.025 260.835 120.139 262.1 117.065 262.072 113.611 260.758 110.558 258.077 104.182 250.736 101.187 244.361 103.868 241.288 105.16 238.857 107.625 237.606 110.715 236.342 113.788 236.37 117.242 237.684 120.295 238.973 123.357 241.426 125.782 244.503 127.037 245.064 127.271 245.645 127.454 246.239 127.585L238.851 134.973 236.791 139.56 209.017 155.224 201.466 167.808 229.901 155.062 217.154 183.494 229.741 175.943 245.214 148.268 249.798 146.21 257.221 138.788C258.892 145.529 265.711 149.638 272.451 147.967 279.192 146.296 283.301 139.477 281.63 132.737 280.241 127.134 275.216 123.197 269.444 123.188ZM206.455 163.38 210.46 156.706 235.43 142.624 231.129 152.32ZM228.255 174.502 221.582 178.506 233.874 151.09 233.859 151.096 238.437 140.777 240.524 136.128 250.587 126.067 248.437 125.888C247.35 125.827 246.28 125.591 245.267 125.189 242.676 124.133 240.611 122.091 239.525 119.513 238.422 116.951 238.397 114.053 239.457 111.473 241.634 106.084 247.767 103.48 253.156 105.657 255.757 106.708 257.831 108.754 258.918 111.34 260.019 113.892 260.047 116.78 258.996 119.354 258.615 120.159 258.179 120.937 257.689 121.681L250.78 134.089 250.791 134.083 243.647 146.973ZM269.444 146.299C263.952 146.291 259.373 142.096 258.885 136.626L258.711 134.469 248.644 144.536 246.833 145.349 254.098 132.242 263.19 127.181 263.277 127.126C265.084 125.86 267.238 125.183 269.444 125.188 275.274 125.152 280.029 129.849 280.065 135.678 280.1 141.508 275.404 146.262 269.575 146.298 269.531 146.299 269.488 146.299 269.445 146.298Z" fill="#000000" fill-rule="nonzero" fill-opacity="1"/><path d="M269.444 128.966C265.701 128.98 262.678 132.025 262.691 135.768 262.705 139.491 265.719 142.506 269.442 142.521L269.444 142.521C273.187 142.535 276.233 139.512 276.247 135.769 276.262 132.026 273.239 128.98 269.496 128.966 269.479 128.966 269.461 128.966 269.444 128.966ZM269.444 140.521 269.442 140.521C266.802 140.52 264.663 138.38 264.663 135.74 264.664 133.1 266.804 130.96 269.444 130.96 272.084 130.961 274.224 133.101 274.223 135.741 274.223 138.381 272.083 140.52 269.444 140.521Z" fill="#000000" fill-rule="nonzero" fill-opacity="1"/><path d="M255.45 118.099C256.107 116.429 256.091 114.569 255.405 112.911 254.721 111.247 253.381 109.938 251.701 109.294 250.031 108.638 248.172 108.654 246.514 109.339 244.849 110.022 243.54 111.363 242.896 113.043 242.239 114.713 242.255 116.572 242.941 118.23 243.625 119.895 244.965 121.204 246.646 121.848 247.44 122.156 248.285 122.314 249.137 122.314 251.904 122.33 254.404 120.661 255.45 118.099ZM247.367 119.982C246.197 119.534 245.264 118.622 244.788 117.462 244.301 116.28 244.291 114.955 244.761 113.766 245.481 111.967 247.234 110.796 249.172 110.82 249.79 110.821 250.403 110.936 250.979 111.16 252.149 111.609 253.082 112.52 253.558 113.68 254.045 114.859 254.056 116.18 253.589 117.367 252.575 119.789 249.808 120.952 247.367 119.982Z" fill="#000000" fill-rule="nonzero" fill-opacity="1"/></g></g></g></g></svg>