<svg width="96" height="99" xmlns="http://www.w3.org/2000/svg" xmlns:xlink="http://www.w3.org/1999/xlink" xml:space="preserve" overflow="hidden"><defs><clipPath id="clip0"><rect x="592" y="310" width="96" height="99"/></clipPath><clipPath id="clip1"><rect x="592" y="311" width="96" height="98"/></clipPath><clipPath id="clip2"><rect x="592" y="311" width="96" height="98"/></clipPath><clipPath id="clip3"><rect x="592" y="311" width="96" height="98"/></clipPath></defs><g clip-path="url(#clip0)" transform="translate(-592 -310)"><g clip-path="url(#clip1)"><g clip-path="url(#clip2)"><g clip-path="url(#clip3)"><path d="M73.9369 46.6335C74.9473 42.7598 72.9264 38.7176 69.0527 37.3703 67.5369 36.8649 65.6842 36.8649 64.1685 37.3703 64.1685 34.3387 62.1474 31.4754 59.1159 30.465L58.779 30.2966C56.9263 29.7913 54.9053 29.7913 53.2211 30.6336L57.0949 9.91781C57.4318 7.56 57.0949 5.202 55.9159 3.34931 54.3999 1.15987 52.2105-0.1875 49.8527-0.1875 45.6422-0.1875 42.7791 3.85463 42.1054 8.06512L38.7369 29.7915 35.3685 9.58088C33.6844 2.50725 29.979 1.49662 27.9579 1.49662 25.6001 1.49662 23.2421 2.844 21.7264 5.03344 20.5474 6.88613 20.0422 9.24394 20.379 11.6019L25.2632 43.9388 27.4526 54.5492 25.9369 55.7282C25.8701 55.7683 25.8105 55.8139 25.7542 55.8617 20.7071 59.5268 20.2106 63.3718 20.2106 68.6964L20.2106 68.8648C20.2106 75.9384 25.0948 81.3279 26.9475 83.0123L26.9475 89.0754C26.9475 92.7806 29.979 95.8123 33.6844 95.8123L64.1685 95.8123C67.8737 95.8123 70.737 92.9492 70.737 89.0754L70.737 82.8439C75.6212 76.2754 75.7896 73.9176 75.7896 62.1281 75.7896 55.8968 74.1052 48.8229 73.9369 46.6335ZM53.3895 51.3493C53.6706 50.6818 53.8254 49.9702 53.8725 49.2424 54.0774 47.4722 53.6432 45.7549 52.704 44.3897 52.1372 43.3678 51.3934 42.4536 50.5264 41.7491L52.3791 36.3596C53.2211 34.1702 55.4106 33.1596 57.6002 33.8333L57.9371 34.0016C58.6922 34.2533 59.3528 34.6933 59.8494 35.3211 60.5038 36.3313 60.6883 37.6074 60.2949 38.8858L59.1159 42.2542C59.0655 42.4054 59.0361 42.5522 59.0218 42.6947L53.274 59.2995C52.2437 60.8674 50.376 61.5246 48.5055 60.9489L48.1686 60.7806C48.0002 60.7806 47.6632 60.6122 47.4949 60.4436 50.3578 56.7388 52.5474 53.5387 53.3895 51.3493ZM56.2526 60.9493 56.3038 60.8012C56.544 60.4217 56.7536 60.0212 56.9263 59.6019L62.9381 42.3178C62.9651 42.2844 62.9917 42.2507 63.0197 42.2179 63.1536 42.0621 63.3002 41.9147 63.4571 41.7771 63.6141 41.6394 63.7813 41.5114 63.9566 41.394 64.1321 41.2766 64.3155 41.1701 64.5051 41.0754 65.5155 40.5701 66.6945 40.5701 67.7051 40.9071 68.7158 41.244 69.5578 42.0861 70.0629 43.0965 70.5683 44.1069 70.5683 45.2859 70.2313 46.2966L64.1681 63.8124C63.8312 64.8231 62.9891 65.6651 61.9787 66.1704 60.9683 66.6758 59.7893 66.6758 58.7786 66.3388 57.768 66.0019 56.9259 65.1598 56.4208 64.1494 55.9159 63.1387 55.9159 61.9599 56.2526 60.9493ZM28.6316 43.4336 23.7474 11.0966C23.5791 9.4125 23.7474 8.06512 24.5895 6.88613 25.4316 5.70712 26.7789 4.86506 27.9579 4.86506 30.3158 4.86506 31.4948 7.89656 32.0001 10.2546L37.0526 40.5703C37.221 41.244 37.8947 41.9177 38.7367 41.9177 39.5788 41.9177 40.2525 41.4124 40.4209 40.5703L45.4734 8.57025C45.9788 5.8755 47.6629 3.18075 49.8523 3.18075 51.0313 3.18075 52.2101 3.85444 52.8838 5.03344 53.5575 6.21244 53.8942 7.72819 53.5575 9.24394L48.3364 37.0335C48.2769 37.3311 48.303 37.6279 48.3968 37.8956L47.0072 41.8657C45.492 42.0184 43.6343 42.6384 41.4311 44.1073 39.192 45.6002 34.6558 49.0224 30.3336 52.3384L28.6316 43.4336ZM67.7053 81.3283C67.3686 81.6653 67.3686 82.002 67.3686 82.5073L67.3686 89.0758C67.3686 90.9285 66.0212 92.4443 64.1685 92.4443L33.6842 92.4443C31.8315 92.4443 30.3158 90.9285 30.3158 89.0758L30.3158 82.3389C30.3158 81.8336 30.1474 81.3285 29.6421 80.9916 29.6421 80.9916 23.7472 75.939 23.5789 69.0338 23.5789 63.6442 23.9158 61.2864 27.9578 58.4233 28.1261 58.4233 28.1261 58.4233 28.1261 58.4233L29.6846 57.1044C35.0077 53.0452 40.8555 48.6401 43.284 46.9706 45.9788 45.1179 48.1682 44.7812 49.5156 45.7916 50.526 46.6337 50.8629 48.4864 50.3576 50.0021 50.2569 50.2438 50.1332 50.5086 49.9901 50.7917 47.1621 56.2365 37.1978 64.5662 33.3471 66.1706 32.505 66.5074 32.1681 67.518 32.505 68.3601 32.6734 69.0338 33.3471 69.3705 34.0208 69.3705 34.1891 69.3705 34.3577 69.3705 34.6944 69.2021 36.8914 68.2256 40.7394 65.4801 44.4152 62.1812 45.2012 63.0253 46.179 63.5618 47.1576 63.981L47.4945 64.1494C48.1682 64.3177 49.0103 64.4863 49.8523 64.4863 50.8712 64.4863 51.8708 64.2572 52.794 63.8452 52.92 64.4617 53.1197 65.0721 53.3891 65.6651 54.3996 67.5178 55.9155 68.8652 57.768 69.5389 58.6101 69.7073 59.4521 69.8758 60.2944 69.8758 61.4734 69.8758 62.6524 69.5391 63.4944 69.2021 65.3471 68.1917 66.6945 66.6758 67.3682 64.8232L71.4709 52.9708C71.9659 55.7081 72.4207 59.058 72.4207 62.1285 72.4211 73.9177 72.2526 75.2651 67.7053 81.3283Z" fill="#000000" fill-rule="nonzero" fill-opacity="1" transform="matrix(6.2508e-17 1.02083 -1 6.12323e-17 687.812 311)"/></g></g></g></g></svg>